<svg width="80" height="25" viewBox="0 0 80 25" fill="none" xmlns="http://www.w3.org/2000/svg">
<rect width="80" height="25" rx="3" fill="#8257E6"/>
<path d="M26.3276 16.544V18H20.2236V8.2H21.7356V16.544H26.3276ZM35.009 14.318C35.009 15.0647 34.841 15.7273 34.505 16.306C34.1783 16.8753 33.7303 17.3233 33.161 17.65C32.601 17.9767 31.971 18.14 31.271 18.14C30.571 18.14 29.9363 17.9767 29.367 17.65C28.7977 17.3233 28.345 16.8753 28.009 16.306C27.6823 15.7273 27.519 15.0647 27.519 14.318C27.519 13.5713 27.6823 12.9133 28.009 12.344C28.345 11.7653 28.7977 11.3127 29.367 10.986C29.9363 10.6593 30.571 10.496 31.271 10.496C31.971 10.496 32.601 10.6593 33.161 10.986C33.7303 11.3127 34.1783 11.7653 34.505 12.344C34.841 12.9133 35.009 13.5713 35.009 14.318ZM33.539 14.318C33.5483 13.8233 33.4503 13.3893 33.245 13.016C33.049 12.6333 32.7783 12.3393 32.433 12.134C32.0877 11.9193 31.7003 11.812 31.271 11.812C30.8417 11.812 30.4497 11.9193 30.095 12.134C29.7497 12.3393 29.4743 12.6333 29.269 13.016C29.073 13.3893 28.9797 13.8233 28.989 14.318C28.9797 14.8033 29.073 15.2373 29.269 15.62C29.4743 15.9933 29.7497 16.2873 30.095 16.502C30.4497 16.7167 30.8417 16.824 31.271 16.824C31.7003 16.824 32.0877 16.7167 32.433 16.502C32.7783 16.2873 33.049 15.9933 33.245 15.62C33.4503 15.2373 33.5483 14.8033 33.539 14.318ZM40.6963 12.204C40.6029 12.1573 40.4863 12.12 40.3463 12.092C40.2156 12.0547 40.0756 12.036 39.9263 12.036C39.6276 12.036 39.3336 12.1153 39.0443 12.274C38.7549 12.4233 38.5123 12.6427 38.3163 12.932C38.1296 13.212 38.0363 13.548 38.0363 13.94V18H36.5803V10.65H38.0363V12.036C38.2416 11.588 38.5496 11.2193 38.9603 10.93C39.3803 10.6407 39.8189 10.496 40.2763 10.496C40.6216 10.496 40.8876 10.5427 41.0743 10.636L40.6963 12.204ZM48.2263 17.034H48.2123C47.9136 17.3233 47.503 17.58 46.9803 17.804C46.4576 18.028 45.9116 18.14 45.3423 18.14C44.577 18.14 43.9003 17.9813 43.3123 17.664C42.7336 17.3373 42.281 16.894 41.9543 16.334C41.6276 15.7647 41.4643 15.1207 41.4643 14.402C41.4643 13.5807 41.637 12.8807 41.9823 12.302C42.3276 11.714 42.785 11.266 43.3543 10.958C43.9236 10.6407 44.5443 10.482 45.2163 10.482C45.8323 10.482 46.3923 10.636 46.8963 10.944C47.4003 11.2427 47.8016 11.658 48.1003 12.19C48.399 12.722 48.5483 13.3427 48.5483 14.052L48.5343 14.668H42.9063C42.9903 15.3307 43.261 15.858 43.7183 16.25C44.185 16.6327 44.773 16.824 45.4823 16.824C45.9956 16.824 46.411 16.7307 46.7283 16.544C47.0456 16.348 47.307 16.1613 47.5123 15.984L48.2263 17.034ZM45.2163 11.812C44.6656 11.812 44.185 11.9427 43.7743 12.204C43.3636 12.456 43.093 12.8947 42.9623 13.52H47.0783V13.422C47.0503 13.1047 46.943 12.8247 46.7563 12.582C46.579 12.3393 46.355 12.1527 46.0843 12.022C45.8136 11.882 45.5243 11.812 45.2163 11.812ZM53.8534 10.524C54.4601 10.524 54.9454 10.664 55.3094 10.944C55.6734 11.2147 55.9348 11.588 56.0934 12.064C56.2241 11.8307 56.4154 11.5973 56.6674 11.364C56.9194 11.1213 57.2134 10.9207 57.5494 10.762C57.8854 10.6033 58.2448 10.524 58.6274 10.524C59.2621 10.524 59.7568 10.664 60.1114 10.944C60.4661 11.2147 60.7134 11.5833 60.8534 12.05C61.0028 12.5073 61.0774 13.0207 61.0774 13.59V18H59.6214V13.674C59.6214 13.1327 59.5188 12.694 59.3134 12.358C59.1081 12.022 58.7208 11.854 58.1514 11.854C57.6101 11.854 57.1621 12.0267 56.8074 12.372C56.4621 12.708 56.2894 13.1187 56.2894 13.604V18H54.8334V13.646C54.8334 13.1233 54.7214 12.694 54.4974 12.358C54.2734 12.022 53.9048 11.854 53.3914 11.854C53.0368 11.854 52.7194 11.9333 52.4394 12.092C52.1594 12.2507 51.9401 12.4607 51.7814 12.722C51.6228 12.974 51.5434 13.2587 51.5434 13.576V18H50.0874V10.65H51.5434V11.826C51.7674 11.49 52.0801 11.1913 52.4814 10.93C52.8921 10.6593 53.3494 10.524 53.8534 10.524Z" fill="#FEFBFB"/>
</svg>
